<?xml version="1.0" encoding="utf-8"?>
<!-- Generator: Adobe Illustrator 25.2.1, SVG Export Plug-In . SVG Version: 6.00 Build 0)  -->
<svg version="1.1" id="Layer_1" xmlns="http://www.w3.org/2000/svg" xmlns:xlink="http://www.w3.org/1999/xlink" x="0px" y="0px"
	 viewBox="0 0 150 55.8" style="enable-background:new 0 0 150 55.8;" xml:space="preserve">
<style type="text/css">
	.st0{fill:#2185D0;}
	.st1{fill:#6EABF2;}
	.st2{fill:#222643;}
	.st3{fill:#0F172A;}
</style>
<g id="logo_x5F_1">
	<g>
		<g>
			<path class="st0" d="M3.7,41c-0.3,0-0.6,0-0.9-0.1c-1.7-0.5-2.6-2.2-2.2-3.9l7.8-26.8c0.5-1.7,2.2-2.6,3.9-2.2
				c1.7,0.5,2.6,2.2,2.2,3.9L6.8,38.7C6.4,40,5.1,41,3.7,41z"/>
			<path class="st1" d="M28.1,38.2c-0.4,0-0.8-0.1-1.2-0.2l-12.8-5c-1.6-0.6-2.4-2.5-1.8-4.1c0.6-1.6,2.5-2.4,4.1-1.8l3.3,1.3
				L8.9,12.7c-1-1.4-0.6-3.4,0.8-4.4c1.4-1,3.4-0.6,4.4,0.8l16.6,24c0.8,1.2,0.8,2.7-0.1,3.8C30,37.8,29.1,38.2,28.1,38.2z
				 M25.5,36.7L25.5,36.7L25.5,36.7z"/>
			<path class="st1" d="M12.7,18.2c0,0-3.5-3.5-4.4-5.2c-0.6-1.1,0.1-2.8,0.1-2.8L12.7,18.2z"/>
			<path class="st2" d="M14,9.1C14,9,14,8.9,13.9,8.9c0,0-0.1-0.1-0.1-0.1c0,0-0.1-0.1-0.1-0.1c0,0-0.1-0.1-0.1-0.1
				c0,0-0.1-0.1-0.1-0.1c0,0-0.1-0.1-0.1-0.1c0,0-0.1-0.1-0.1-0.1c0,0-0.1-0.1-0.1-0.1c0,0-0.1-0.1-0.1-0.1c-0.1,0-0.1-0.1-0.2-0.1
				c0,0-0.1,0-0.1-0.1c-0.1,0-0.1,0-0.2-0.1c0,0-0.1,0-0.1,0c-0.1,0-0.2,0-0.2-0.1c-0.1,0-0.2,0-0.3-0.1c0,0,0,0,0,0
				c-0.1,0-0.2,0-0.2,0c0,0-0.1,0-0.1,0c-0.1,0-0.1,0-0.2,0c0,0-0.1,0-0.1,0c-0.1,0-0.1,0-0.2,0c0,0-0.1,0-0.1,0c0,0-0.1,0-0.1,0
				c-0.1,0-0.1,0-0.2,0c0,0-0.1,0-0.1,0c-0.1,0-0.1,0-0.2,0.1c-0.1,0-0.1,0.1-0.2,0.1c0,0-0.1,0-0.1,0.1c-0.1,0-0.2,0.1-0.2,0.1
				c0,0,0,0-0.1,0c-0.1,0-0.1,0.1-0.2,0.1c0,0-0.1,0.1-0.1,0.1c0,0-0.1,0.1-0.1,0.1c0,0-0.1,0.1-0.1,0.1C9.1,8.9,9,8.9,9,9
				C9,9,8.9,9,8.9,9.1c0,0-0.1,0.1-0.1,0.1c0,0-0.1,0.1-0.1,0.1c0,0-0.1,0.1-0.1,0.1c0,0.1-0.1,0.1-0.1,0.2c0,0,0,0.1-0.1,0.1
				c0,0.1,0,0.1-0.1,0.2c0,0,0,0.1,0,0.1l0,0c-0.2,0.9-0.1,1.9,0.4,2.7l3.8,5.5l1.8-6.4C14.8,10.9,14.6,9.9,14,9.1L14,9.1
				C14.1,9.1,14.1,9.1,14,9.1z"/>
		</g>
		<g>
			<path class="st3" d="M44.5,38.6c-1.5,0-2.9-0.1-4.3-0.4c-1.4-0.3-2.7-0.6-4-1.2c-1.2-0.5-2.3-1.1-3.2-1.8l2.1-4.6
				c1.5,1,3,1.8,4.5,2.3c1.6,0.5,3.2,0.7,4.9,0.7c1.9,0,3.3-0.3,4.3-0.9c1-0.6,1.5-1.4,1.5-2.5c0-0.6-0.2-1.2-0.6-1.6
				c-0.4-0.4-1.1-0.8-2-1.2c-0.9-0.3-2.1-0.7-3.6-1c-1.9-0.4-3.5-0.8-4.9-1.4c-1.3-0.5-2.4-1.1-3.3-1.8c-0.8-0.7-1.4-1.5-1.8-2.4
				c-0.4-0.9-0.6-2-0.6-3.2c0-1.7,0.5-3.3,1.5-4.7c1-1.4,2.3-2.5,4.1-3.3c1.7-0.8,3.8-1.2,6.1-1.2c1.4,0,2.8,0.1,4.1,0.4
				c1.3,0.3,2.6,0.7,3.7,1.2c1.1,0.5,2.1,1.1,2.8,1.8l-2.1,4.6c-1.3-1-2.7-1.8-4.1-2.3c-1.4-0.5-2.9-0.7-4.4-0.7c-1.7,0-3,0.3-4,1
				c-1,0.7-1.5,1.6-1.5,2.7c0,0.6,0.2,1.2,0.6,1.6c0.4,0.4,1,0.8,1.9,1.2c0.9,0.3,2.1,0.7,3.7,1c1.8,0.4,3.4,0.8,4.8,1.4
				c1.3,0.5,2.4,1.1,3.3,1.8c0.9,0.7,1.5,1.5,1.9,2.3c0.4,0.9,0.6,1.9,0.6,3.1c0,1.8-0.5,3.4-1.4,4.8c-1,1.3-2.3,2.4-4.2,3.1
				C49.2,38.2,47,38.6,44.5,38.6z"/>
			<path class="st3" d="M59,38.4V8.7h6.5v24.5h13.3v5.3H59z"/>
		</g>
	</g>
	<g>
		<g id="payroll">
			<path class="st0" d="M82.5,38.4v-9.7h4c1,0,1.8,0.2,2.4,0.7c0.6,0.5,0.8,1.2,0.8,2c0,0.8-0.3,1.5-0.9,2c-0.6,0.5-1.4,0.7-2.4,0.7
				h-2.6v4.2H82.5z M83.9,33.2h2.5c0.7,0,1.2-0.1,1.5-0.4c0.3-0.3,0.5-0.7,0.5-1.2c0-0.5-0.2-0.9-0.5-1.2c-0.3-0.3-0.8-0.4-1.5-0.4
				h-2.5V33.2z"/>
			<path class="st0" d="M93.7,38.5c-0.6,0-1.1-0.1-1.6-0.4s-0.8-0.7-1.1-1.2c-0.2-0.5-0.4-1.2-0.4-1.9c0-0.7,0.1-1.3,0.4-1.9
				c0.3-0.5,0.6-1,1.1-1.3c0.5-0.3,1-0.4,1.6-0.4c0.6,0,1.1,0.1,1.6,0.4c0.4,0.3,0.7,0.7,0.9,1.3L96,33.2v-1.6h1.4v6.9H96v-1.7
				l0.2,0.1c-0.2,0.5-0.4,1-0.9,1.3C94.8,38.4,94.3,38.5,93.7,38.5z M94,37.4c0.6,0,1.1-0.2,1.4-0.6c0.3-0.4,0.5-1,0.5-1.8
				c0-0.8-0.2-1.4-0.5-1.8c-0.3-0.4-0.8-0.6-1.4-0.6c-0.6,0-1.1,0.2-1.5,0.7c-0.3,0.4-0.5,1-0.5,1.8c0,0.8,0.2,1.4,0.5,1.8
				C92.9,37.2,93.4,37.4,94,37.4z"/>
			<path class="st0" d="M101.5,38.8l-3.1-7.2h1.4l2.3,5.7L101.5,38.8z M99.1,41.5l-0.3-1.1c0.4-0.1,0.8-0.2,1.1-0.3
				c0.3-0.1,0.5-0.3,0.7-0.5c0.2-0.2,0.4-0.5,0.5-0.8l0.5-1.1l0.3-0.5l2.4-5.7h1.4l-3.2,7.4c-0.3,0.6-0.5,1-0.9,1.4
				c-0.3,0.3-0.7,0.6-1.1,0.8C100,41.3,99.5,41.4,99.1,41.5z"/>
			<path class="st0" d="M106.6,38.4v-4.9c0-0.3,0-0.6,0-1c0-0.3,0-0.6-0.1-1h1.3l0.2,1.7l-0.2-0.1c0.1-0.6,0.4-1.1,0.8-1.4
				c0.4-0.3,0.9-0.5,1.4-0.5c0.1,0,0.2,0,0.4,0c0.1,0,0.2,0,0.3,0.1l0,1.3c-0.2-0.1-0.5-0.1-0.8-0.1c-0.4,0-0.8,0.1-1.1,0.3
				c-0.3,0.2-0.5,0.4-0.6,0.7c-0.1,0.3-0.2,0.6-0.2,1v3.8H106.6z"/>
			<path class="st0" d="M114.5,38.5c-0.7,0-1.3-0.1-1.8-0.4c-0.5-0.3-0.9-0.7-1.2-1.2c-0.3-0.5-0.4-1.2-0.4-1.9
				c0-0.7,0.1-1.3,0.4-1.9c0.3-0.5,0.7-0.9,1.2-1.2c0.5-0.3,1.1-0.4,1.8-0.4c0.7,0,1.3,0.1,1.8,0.4s0.9,0.7,1.2,1.2
				c0.3,0.5,0.4,1.2,0.4,1.9c0,0.7-0.1,1.4-0.4,1.9c-0.3,0.5-0.7,0.9-1.2,1.2S115.2,38.5,114.5,38.5z M114.5,37.4
				c0.6,0,1.1-0.2,1.4-0.6c0.3-0.4,0.5-1,0.5-1.8c0-0.8-0.2-1.4-0.5-1.8c-0.3-0.4-0.8-0.6-1.4-0.6c-0.6,0-1.1,0.2-1.4,0.6
				c-0.3,0.4-0.5,1-0.5,1.8c0,0.8,0.2,1.4,0.5,1.8C113.4,37.2,113.9,37.4,114.5,37.4z"/>
			<path class="st0" d="M119.5,38.4v-10h1.4v10H119.5z"/>
			<path class="st0" d="M122.9,38.4v-10h1.4v10H122.9z"/>
		</g>
		<path class="st0" d="M103.1,49.5c0,0,12-9.5,28.3-6.9c12.4,1.9,7.9-4.8,5.7-7.7c-2.3-3.2-15.4-16-41.1-16.1
			c-5.6,0-15.3,1.6-15.3,1.6s29.3-7.7,50.4,4.9c11.6,6.9,23.1,20.3,16,23.2c-5.4,2.3-23.8-7.6-37.8-2.3
			C106.3,47.4,103.1,49.5,103.1,49.5z"/>
	</g>
</g>
</svg>
